<?xml version="1.0" encoding="UTF-8" standalone="no"?>
<svg
   xmlns:dc="http://purl.org/dc/elements/1.1/"
   xmlns:cc="http://creativecommons.org/ns#"
   xmlns:rdf="http://www.w3.org/1999/02/22-rdf-syntax-ns#"
   xmlns:svg="http://www.w3.org/2000/svg"
   xmlns="http://www.w3.org/2000/svg"
   viewBox="0 0 286.70001 291.25"
   height="291.25"
   width="286.70001"
   xml:space="preserve"
   version="1.1"
   id="svg2"><metadata
     id="metadata8"><rdf:RDF><cc:Work
         rdf:about=""><dc:format>image/svg+xml</dc:format><dc:type
           rdf:resource="http://purl.org/dc/dcmitype/StillImage" /></cc:Work></rdf:RDF></metadata><defs
     id="defs6" /><g
     transform="matrix(1.25,0,0,-1.25,0,291.25)"
     id="g10"><g
       transform="scale(0.1,0.1)"
       id="g12"><path
         id="path14"
         style="fill:#f2ef15;fill-opacity:1;fill-rule:evenodd;stroke:none"
         d="m 1635.53,1107.12 0,0.77 0.43,-1.17 0.82,-0.43 -0.82,0 -0.43,0.83 0,0" /><path
         id="path16"
         style="fill:#f2ef15;fill-opacity:1;fill-rule:evenodd;stroke:none"
         d="m 1474.41,833.141 0,0.82 -1.21,0.82 0.79,0 0.83,-0.41 0.41,-0.82 0,-0.41 -0.82,0 0,0" /><path
         id="path18"
         style="fill:#ae2128;fill-opacity:1;fill-rule:nonzero;stroke:none"
         d="M 658.223,341.051 586.406,251.602 572.168,263 551.348,366.16 c -0.723,3.5 -1.289,6.641 -1.68,9.52 -0.41,2.871 -0.605,5.64 -0.664,8.351 -3.711,-5.281 -6.348,-9.019 -7.891,-11.179 -1.562,-2.18 -2.793,-3.864 -3.691,-4.973 l -37.715,-46.969 -18.73,14.969 71.816,89.473 14.258,-11.391 21.465,-107.879 c 0.449,-2.691 0.82,-5.07 1.093,-7.152 0.293,-2.078 0.469,-4.11 0.508,-6.098 1.953,2.938 3.828,5.75 5.664,8.328 1.817,2.57 3.457,4.738 4.922,6.551 l 38.789,48.328 18.731,-14.988 0,0 z m -204.805,117.648 -32.539,38.27 -19.609,-49.008 52.148,10.738 0,0 z m 67.062,-1.871 -127.035,-35.808 -18.289,18.07 34.082,127.691 21.309,-21.082 -7.852,-27.469 51.731,-51.101 27.137,8.391 18.917,-18.692 0,0 z m -232.296,116.16 76.574,54.973 15.613,-21.66 -76.582,-54.981 30.781,-42.691 -16.699,-11.981 -77.285,107.243 16.699,11.98 30.899,-42.883 0,0 z m 29.699,132.383 -98.703,-58.691 -13.684,22.929 98.684,58.692 13.703,-22.93 0,0 z M 192.637,745.98 c -9.942,-3.281 -17.324,-3.66 -22.188,-1.179 -4.883,2.531 -9.062,9.07 -12.578,19.64 l -26.523,80.047 c -3.516,10.571 -4.043,18.301 -1.66,23.223 2.441,4.91 8.593,9.008 18.535,12.277 l 57.461,18.961 c 9.961,3.281 17.382,3.68 22.207,1.18 4.863,-2.551 9.023,-9.09 12.519,-19.66 l 26.524,-80.047 c 3.515,-10.582 4.082,-18.293 1.699,-23.223 -2.383,-4.867 -8.555,-8.98 -18.516,-12.269 l -57.48,-18.95 0,0 z M 246.953,792 219.297,875.449 150.273,852.68 177.93,769.219 246.953,792 l 0,0 z m -35.168,173.359 -114.0116,-14.121 -2.2461,18.071 57.2457,88.441 c 1.895,2.99 3.704,5.64 5.43,7.99 1.719,2.32 3.516,4.44 5.371,6.43 -6.367,-1.2 -10.847,-2.04 -13.476,-2.53 -2.637,-0.47 -4.707,-0.8 -6.133,-0.97 l -59.8556,-7.42 -2.9492,23.76 113.9958,14.12 2.246,-18.06 -60.039,-92.25 c -1.55,-2.25 -2.949,-4.211 -4.199,-5.898 -1.238,-1.684 -2.539,-3.262 -3.906,-4.742 3.457,0.781 6.777,1.48 9.883,2.058 3.105,0.571 5.781,0.981 8.105,1.25 l 61.594,7.653 2.945,-23.782 0,0 z M 143.32,1195 l 3.067,50.08 -48.1643,-21.83 45.0973,-28.25 0,0 z m 42.637,-53.99 -110.7031,71.7 1.5742,25.63 118.6679,58.63 -1.824,-29.87 -25.859,-12.23 -4.454,-72.51 24.231,-14.83 -1.633,-26.52 0,0 z m 19.102,196.4 -113.6137,16.87 3.9649,26.41 92.2068,-13.7 12.742,85.03 21.399,-3.17 -16.699,-111.44 0,0 z m 58.125,427.2 -35.371,-62.63 63.339,-35.58 35.371,62.64 -21.503,12.07 17.949,20.55 11.867,-6.66 c 9.148,-5.14 14.402,-10.36 15.762,-15.65 1.394,-5.29 -0.657,-12.78 -6.086,-22.42 l -33.653,-59.6 c -5.488,-9.71 -10.832,-15.33 -16.093,-16.88 -5.196,-1.53 -12.403,0.26 -21.543,5.4 l -52.735,29.62 c -9.121,5.13 -14.375,10.32 -15.82,15.59 -1.387,5.29 0.625,12.78 6.113,22.49 l 33.633,59.6 c 5.457,9.65 10.828,15.26 16.082,16.8 5.317,1.57 12.492,-0.21 21.594,-5.32 l 9.473,-5.32 -9.454,-25.33 -18.925,10.63 0,0 z m 127.714,20.6 -84.785,77.31 18.035,19.7 32.883,-29.98 56.289,61.46 -32.89,29.98 18.203,19.87 84.785,-77.31 -18.203,-19.86 -36.485,33.27 -56.289,-61.46 36.504,-33.27 -18.047,-19.71 0,0 z m 140.696,147.06 -73.215,88.29 90.637,74.85 12.449,-15.02 -70.02,-57.83 16.36,-19.73 40.879,33.75 12.449,-15.01 -40.879,-33.76 18.152,-21.9 70.871,58.53 13.789,-16.63 -91.472,-75.54 0,0 z m 137.136,99.25 -52.507,101.92 16.226,8.33 102.895,-23.13 c 3.484,-0.75 6.59,-1.53 9.383,-2.34 2.793,-0.81 5.41,-1.75 7.91,-2.8 -3.321,5.54 -5.672,9.45 -7.024,11.75 -1.343,2.3 -2.351,4.11 -3.015,5.4 l -27.578,53.51 21.347,10.96 52.512,-101.93 -16.234,-8.33 -107.45,24.45 c -2.644,0.68 -4.98,1.32 -6.992,1.9 -2.019,0.6 -3.945,1.27 -5.801,2.02 1.914,-2.97 3.731,-5.83 5.325,-8.54 1.609,-2.72 2.918,-5.08 3.984,-7.16 l 28.367,-55.06 -21.348,-10.95 0,0 z m 257.227,203.16 -80.137,-23.29 20.313,-69.65 80.117,23.3 -7.129,24.48 -41.941,-12.2 -5.481,18.73 66.895,19.45 11.035,-37.88 c 2.961,-10.09 3.066,-17.5 0.383,-22.21 -2.707,-4.76 -9.414,-8.68 -20.09,-11.78 l -76.074,-22.11 c -10.723,-3.13 -18.496,-3.41 -23.328,-0.85 -4.797,2.54 -8.696,8.85 -11.633,18.94 l -16.875,57.96 c -2.93,10.01 -3.047,17.39 -0.379,22.17 2.703,4.76 9.402,8.7 20.125,11.83 l 76.086,22.11 c 10.535,3.07 18.289,3.35 23.152,0.87 4.863,-2.51 8.692,-8.49 11.445,-17.95 l 0.723,-2.48 -23.621,-11.73 -3.586,12.29 0,0 z m 302.343,-69.79 10.18,114.18 26.87,-2.39 -4.24,-47.62 67.68,42.02 38.53,-3.42 -80.58,-47.09 79.71,-67.91 -42.75,3.78 -64.05,56.29 -4.49,-50.23 -26.86,2.39 0,0 z m 225.63,76.41 -21.53,-90.53 74.1,-17.51 21.53,90.55 25.91,-6.12 -20.24,-85.18 c -2.43,-10.19 -5.99,-16.69 -10.65,-19.47 -4.71,-2.81 -12.47,-2.91 -23.32,-0.35 l -70.61,16.68 c -10.78,2.54 -17.67,6.11 -20.62,10.72 -3,4.59 -3.27,11.99 -0.83,22.19 l 20.22,85.18 26.04,-6.16 0,0 z m 124.7,-162.34 56.92,99.57 15.86,-9.02 36.73,-98.67 c 1.25,-3.32 2.31,-6.34 3.15,-9.12 0.86,-2.78 1.48,-5.49 1.97,-8.15 2.83,5.8 4.83,9.9 6.02,12.29 1.21,2.39 2.17,4.22 2.89,5.48 l 29.88,52.27 20.84,-11.86 -56.91,-99.57 -15.86,9.02 -38.11,103.2 c -0.88,2.59 -1.6,4.88 -2.21,6.89 -0.6,2.01 -1.11,3.99 -1.46,5.94 -1.46,-3.21 -2.87,-6.29 -4.28,-9.11 -1.4,-2.83 -2.67,-5.21 -3.83,-7.23 l -30.76,-53.79 -20.84,11.86 0,0 z m 312.15,-101.13 -61.35,56.47 -49.29,-53.31 61.32,-56.47 17.35,18.74 -32.11,29.56 13.26,14.34 51.19,-47.14 -26.81,-28.99 c -7.15,-7.73 -13.46,-11.65 -18.89,-11.79 -5.47,-0.14 -12.31,3.57 -20.47,11.1 l -58.24,53.61 c -8.19,7.55 -12.44,14.04 -12.74,19.5 -0.29,5.41 3.11,11.99 10.26,19.71 l 41.01,44.37 c 7.11,7.67 13.38,11.56 18.85,11.75 5.49,0.15 12.33,-3.53 20.55,-11.09 l 58.22,-53.62 c 8.07,-7.42 12.32,-13.9 12.7,-19.34 0.35,-5.46 -2.82,-11.82 -9.5,-19.05 l -1.77,-1.91 -22.25,14.15 8.71,9.41 0,0 z m 221.67,-239.82 -82.87,-42.68 34.92,-67.52 82.86,42.68 12.22,-23.61 -77.95,-40.15 c -9.32,-4.8 -16.59,-6.34 -21.74,-4.62 -5.19,1.75 -10.34,7.55 -15.45,17.44 l -33.28,64.34 c -5.1,9.84 -6.85,17.38 -5.26,22.61 1.53,5.25 7,10.27 16.32,15.08 l 77.95,40.14 12.28,-23.71 0,0 z m -26.3,-198.97 110.26,32.17 5.13,-17.48 -42.26,-96.43 c -1.41,-3.26 -2.76,-6.16 -4.1,-8.75 -1.33,-2.58 -2.76,-4.96 -4.24,-7.22 6.07,2.2 10.37,3.76 12.89,4.65 2.52,0.9 4.49,1.54 5.88,1.95 l 57.89,16.89 6.74,-22.98 -110.28,-32.17 -5.11,17.48 44.45,100.65 c 1.15,2.47 2.23,4.62 3.18,6.48 0.96,1.87 1.99,3.62 3.09,5.3 -3.28,-1.31 -6.45,-2.54 -9.42,-3.6 -2.96,-1.05 -5.54,-1.88 -7.81,-2.54 l -59.55,-17.39 -6.74,22.99 0,0 z m 46.35,-193.36 113.67,16.55 3.87,-26.41 -113.67,-16.54 -3.87,26.4 0,0 z m 11.78,-119.65 115.68,64.84 -0.37,-30.45 -83.61,-45.4 82.5,-45.23 -0.34,-26.59 -114.08,64.4 0.22,18.43 0,0 z m -3.03,-123.11 114.45,-9.82 -10.09,-116.92 -19.51,1.652 7.83,90.348 -25.58,2.21 -4.56,-52.73 -19.47,1.66 4.56,52.73 -28.37,2.43 -7.92,-91.402 -21.55,1.844 10.21,117.998 0,0 z m 38.46,-276.131 18.19,57.18 -30.5,9.64 -18.16,-57.187 c -1.41,-4.402 -1.72,-7.602 -0.98,-9.633 0.76,-2.019 2.77,-3.539 6.02,-4.59 l 13.18,-4.16 c 3.18,-1.008 5.68,-0.898 7.46,0.313 1.8,1.218 3.39,4.019 4.79,8.437 l 0,0 z m -64.42,110.84 109.49,-34.609 -29.7,-93.489 c -2.76,-8.679 -6.42,-14.41 -11.02,-17.281 -4.6,-2.82 -10.62,-3.051 -18.04,-0.699 l -25.75,8.14 c -7.38,2.34 -12.15,5.981 -14.25,10.918 -2.15,4.981 -1.86,11.813 0.89,20.493 l 4.54,14.25 -57.37,-37.352 11.59,36.488 55.35,30.953 7.64,24.098 -41.33,13.07 7.96,25.02 0,0 z m -32.22,-304.43 37.26,65.16 -21.44,12.211 -35.47,-62.039 c -5.57,-9.761 -11.02,-15.402 -16.27,-16.91 -5.31,-1.519 -12.48,0.27 -21.56,5.449 l -13.7,7.789 c -9.06,5.161 -14.27,10.379 -15.64,15.731 -1.39,5.301 0.7,12.84 6.29,22.582 l 35.14,61.476 c 5.56,9.731 10.99,15.372 16.27,16.872 5.31,1.558 12.48,-0.258 21.52,-5.411 l 2.75,-1.558 -7.44,-22.871 -11.8,6.711 -40.21,-70.34 22.75,-12.949 35.47,62.046 c 5.53,9.672 10.94,15.243 16.21,16.774 5.28,1.449 12.44,-0.352 21.53,-5.524 l 11.01,-6.269 c 9.08,-5.18 14.3,-10.391 15.72,-15.668 1.37,-5.313 -0.68,-12.789 -6.21,-22.481 l -32.28,-56.48 c -5.35,-9.352 -10.67,-14.891 -15.88,-16.609 -5.25,-1.731 -11.97,-0.27 -20.16,4.379 l -2.07,1.191 6.86,23.199 11.35,-6.461 0,0 z m -127.66,-22.949 90.9,-70.07 -16.35,-21.121 -90.9,70.089 16.35,21.102 0,0 z m -21.33,-171.5 -65.88,67.352 19.14,18.648 65.88,-67.371 37.72,36.742 14.35,-14.68 -94.74,-92.261 -14.36,14.672 37.89,36.898 0,0 z m -159.86,-14.93 32.1,-40.082 86.22,-12.289 -27.85,-22.219 -58.34,9.84 -3.38,-59.082 -24.53,-19.566 7.2,86.039 -32.48,40.527 21.06,16.832 0,0" /><path
         id="path20"
         style="fill:#ae2128;fill-opacity:1;fill-rule:nonzero;stroke:none"
         d="m 905.234,114.73 18.223,98.911 -26.055,4.75 3.008,16.308 53.301,-1.617 -22.676,-123.07 -25.801,4.718 0,0 z m 257.066,18.692 c -8.94,-1.32 -18.04,-2.231 -27.25,-2.742 -9.17,-0.559 -18.45,-0.731 -27.78,-0.59 -20.08,0.289 -33.88,2.808 -41.27,7.558 -7.45,4.813 -11.06,13.153 -10.88,25.161 l 0.25,16.671 c 0.14,10.352 3.66,17.911 10.61,22.75 6.95,4.821 17.71,7.141 32.3,6.961 l 52.56,-0.781 c 15.66,-0.219 26.39,-3.121 32.1,-8.68 5.74,-5.582 8.49,-15.66 8.27,-30.199 l -0.25,-16.351 c -0.33,-23.098 -8.6,-40.828 -24.81,-53.18 -16.19,-12.3906 -38.89,-18.3516 -68.1,-17.9492 -2.42,0.0508 -4.27,0.0781 -5.47,0.1406 -1.21,0.0469 -2.37,0.1797 -3.45,0.3594 l -16.79,20.0972 7.87,-0.117 c 26.58,-0.383 45.77,1.778 57.66,6.449 11.88,4.692 20.04,12.84 24.43,24.442 l 0,0 z m 1.68,18.988 c 0.28,1.391 0.49,2.75 0.63,4.051 0.15,1.301 0.19,2.379 0.21,3.34 0.18,12.23 -1.31,19.82 -4.48,22.91 -3.17,3 -10.22,4.578 -21.16,4.719 l -34.46,0.519 c -8.72,0.133 -14.76,-0.879 -18.08,-3.019 -3.34,-2.168 -5.05,-6.168 -5.14,-12.168 l -0.09,-6.942 c -0.1,-6 1.7,-10.121 5.35,-12.3 3.67,-2.18 11.05,-3.321 22.22,-3.489 7.84,-0.109 16.44,0.008 25.73,0.379 9.32,0.391 19.06,1.051 29.27,2 l 0,0 z m 125.73,-58.8983 c -11.11,-1.4531 -18.83,-0.7109 -23.14,2.1992 -4.3,2.9102 -7.04,9.0081 -8.25,18.2581 l -1.31,9.972 24.67,8.547 2.23,-17.226 66.54,8.679 c 4.75,0.598 7.85,1.77 9.24,3.45 1.41,1.679 1.82,4.73 1.25,9.14 l -1.17,8.969 c -0.59,4.512 -1.82,7.422 -3.66,8.73 -1.83,1.29 -5.07,1.641 -9.73,1.032 l -41.68,-5.43 -2.61,20.039 37.13,4.828 c 4.68,0.621 7.67,1.77 9.04,3.449 1.35,1.684 1.78,4.75 1.17,9.243 l -0.8,6.211 c -0.6,4.57 -1.79,7.5 -3.54,8.757 -1.74,1.282 -4.95,1.61 -9.6,1.032 l -60.98,-7.93 2,-15.41 -24.97,1.379 -0.99,7.691 c -1.2,9.25 -0.12,15.809 3.26,19.719 3.34,3.91 10.6,6.601 21.72,8.039 l 66.79,8.703 c 11.11,1.438 18.82,0.707 23.1,-2.23 4.23,-2.911 6.96,-8.981 8.17,-18.204 l 1.47,-11.226 c 0.94,-7.192 -0.12,-12.793 -3.18,-16.742 -3.05,-3.969 -8.91,-7.192 -17.56,-9.77 10,0.371 17.54,-1.191 22.65,-4.609 5.1,-3.469 8.18,-9 9.18,-16.719 l 1.68,-12.934 c 1.34,-10.066 0.03,-17.277 -3.81,-21.636 -3.86,-4.332 -11.38,-7.223 -22.61,-8.692 l -71.7,-9.3083 0,0 z m 230.11,47.5973 -29.98,96.012 -25.29,-7.851 -4.92,15.812 47.95,23.246 37.3,-119.418 -25.06,-7.801 0,0" /><path
         id="path22"
         style="fill:#ffffff;fill-opacity:1;fill-rule:evenodd;stroke:none"
         d="m 812.219,719.012 c 36.328,169.367 91.48,543.258 132.117,729.198 182.504,-104.32 314.254,-107.35 523.614,-6.87 19.7,-105.81 99.66,-531.102 134.76,-720.36 -200.54,89.25 -586.24,95.43 -790.491,-1.968 l 0,0" /><path
         id="path24"
         style="fill:#a11c22;fill-opacity:1;fill-rule:evenodd;stroke:none"
         d="m 1025.23,1167.75 c 5.53,-8.74 -6.07,-25.17 -13.35,-30.84 -14.7,-11.44 -10.49,-11.27 -6.55,-29.92 4.59,0.33 9.5,0.67 14.44,0.98 15.64,19.57 31.75,22.07 61.3,24.22 3.97,0.28 4.9,6.05 5.55,9.67 -18.23,14.18 -49.4,28.77 -53.32,35.03 -13.7,21.86 0.02,42.86 8.75,48.54 21.27,13.83 47.97,17.55 50.17,28.42 4.21,20.79 -41.25,28.4 -60.31,35.94 -32.347,7.79 -94.508,5.76 -76.207,42.88 44.497,24.97 140.977,-9.23 179.797,-30.64 20.06,-11.07 41.36,-42.47 31.8,-58.28 -16.13,-26.71 -55.09,-27.45 -58.41,-40.49 -1.47,-5.74 3.45,-12.46 7.86,-16.5 15.74,-14.44 38.66,-22.17 43.66,-67.98 0.61,-5.51 18.64,-5.15 25.57,1.08 6.31,5.73 7.55,17.89 8.2,26.08 29.84,17.32 41.62,7.81 54.42,-22.91 20.35,2.29 45.91,4.59 66.24,6.87 -6.52,24.31 0.14,53.3 -15.08,56.92 -48.69,11.54 -94.62,9.23 -105.26,24.55 8.21,39.98 42.96,27.67 88.21,32.38 -3.61,36.96 -22.77,34.1 -55.73,51.35 -14.02,7.34 -25.26,5.64 -28.53,33.38 69.17,-2.95 75.5,-5.26 205,-8.53 13.77,-3.6 14.34,-5.87 18.93,-10.45 -16.91,-25.81 -21.35,-24.47 -52.46,-34.02 0.66,-7.53 1.31,-15.05 2.3,-22.58 26.55,2.62 62.06,15.46 88.85,11.12 11.48,-14.57 -14.77,-32.28 -23.6,-41.17 -6.04,-6.08 -1.26,-4.71 -9.34,-8.57 -12.52,-5.97 -28.77,-9.14 -30.66,-25.17 1.3,-1.32 2.94,-2.94 4.58,-4.58 38.69,4.58 68.06,17.13 77.95,9.16 11,-23.96 -15.99,-34.69 -35,-50.05 -7.32,-5.92 8.44,-24.13 14.73,-30.57 4.29,-4.43 6.34,-3.67 9.88,-9.5 24.24,-39.77 36.54,-83.42 47.19,-129.07 7.48,-32.012 9.78,-50.82 7.7,-83.988 -0.12,-2.012 -2.55,-21.34 -3.89,-23.762 -3.42,-6.18 -5.49,-10.25 -7.08,-9.371 -4.98,2.75 -11.69,2.543 -14.43,6.883 -40.31,64.039 -30.82,153.748 -80.33,211.988 -4.59,-0.66 -8.85,-1.65 -13.12,-2.62 -15.4,-64.12 15.42,-132.169 4.93,-198.251 -6.23,0.32 -12.45,0.66 -18.36,0.98 -16.4,60.2 -34.75,161.941 -69.51,215.921 -3.61,-0.33 -7.22,-0.99 -10.82,-1.64 1.96,-48.75 8.72,-130.769 4.66,-145.249 -1.78,-6.411 2.42,-7.379 -9.91,-53.641 -1.52,-5.73 -15.7,-3.781 -17.05,1.629 -13.58,54.281 -3.72,106.262 -23.28,155.061 -4.26,0 -10.53,0 -14.45,0 -3.73,-7.87 -7.8,-14.42 -8.75,-27.4 -1.04,-14.4 -10.26,-31.091 -25.34,-54.169 -11.62,-17.769 -65.06,-82.012 -86.87,-82.012 -1.11,4.711 -0.04,11.653 3.63,16.84 9.71,13.75 51.78,127.441 50.8,153.941 -21.01,5.22 -49.2,-73.511 -90.76,-126.128 -8.98,-11.352 -50.82,-59.301 -94.17,-69.922 -24.775,-6.051 -37.99,-1.379 -54.834,6.422 6.477,7.019 18.204,12.597 22.649,14.707 82.355,38.961 111.165,70.203 131.865,148.421 -1.96,4.25 -3.93,8.16 -5.9,12.11 -20.63,-4.8 -54.12,-61.352 -70.16,-74.609 -36.227,-29.891 -61.266,-34.512 -100.141,-36.68 0.059,3.07 1.805,5.43 4.09,6.129 38.379,11.781 73.091,69.5 77.691,105.48 -18.687,2.94 -106.89,10.15 -120.66,29.44 2.949,7.21 5.898,16.04 8.848,22.91 64.55,31.94 20.703,25.77 10.078,51 -21.555,51.21 94.433,65.26 121.304,22.83 l 0,0" /><path
         id="path26"
         style="fill:#ffffff;fill-opacity:1;fill-rule:evenodd;stroke:none"
         d="m 986.973,1493.36 c 25.237,15.04 44.907,27.47 73.437,34.35 52.01,-98.1 230.41,-99.08 298.22,-2.2 4.92,-17.99 55.88,-21.69 70.64,-38.7 -88.25,-100.99 -345.31,-107.31 -442.297,6.55 l 0,0" /><path
         id="path28"
         style="fill:#ffffff;fill-opacity:1;fill-rule:evenodd;stroke:none"
         d="m 1182.3,1488.11 c -4.15,54.85 3.99,185.39 11.04,253.87 4.92,-0.32 15.27,0.81 20.51,0.16 4.59,-11.45 1.54,-113.35 12.03,-253.04 -19.62,-5.27 -24.26,-7.06 -43.58,-0.99 l 0,0" /><path
         id="path30"
         style="fill:#ffffff;fill-opacity:1;fill-rule:evenodd;stroke:none"
         d="m 1253.85,1496.73 c -10.88,84.57 -10.88,170.68 -13.69,251.47 17.38,8.5 15.33,8.5 32.06,11.12 8.35,-69.87 18.01,-185.49 29.5,-252.23 -15.81,-6.3 -31.11,-14.07 -47.87,-10.36 l 0,0" /><path
         id="path32"
         style="fill:#ffffff;fill-opacity:1;fill-rule:evenodd;stroke:none"
         d="m 1110.21,1515.36 c -4.39,45.66 11.49,180.73 23.32,242.32 17.51,-3.36 18.64,-4.72 36.06,-9.48 -10.49,-221.48 -6.52,-215.73 -12.95,-248.77 -17.93,-0.72 -34.25,5.91 -46.43,15.93 l 0,0" /><path
         id="path34"
         style="fill:#ffffff;fill-opacity:1;fill-rule:evenodd;stroke:none"
         d="m 1137.13,1791.38 c 23.31,42.88 98.04,40.24 127.26,4.99 -22.81,-31.2 -103.61,-30.51 -127.26,-4.99 l 0,0" /><path
         id="path36"
         style="fill:#a11c22;fill-opacity:1;fill-rule:evenodd;stroke:none"
         d="m 1151.57,586.289 c -2.84,63.262 10.99,126.93 12.12,158.242 -22.01,0.36 -46.01,2.731 -60,-5.242 37.33,-330.949 -149.549,-279.457 -417.831,-247.73 -53.105,151.429 -169.921,232.89 -91.64,361.55 40.066,65.852 207.07,114.411 209.699,120.629 15.008,5.66 13.562,24.614 22.398,61.282 -5.906,-0.31 -11.804,-0.65 -17.703,-1.31 -107.097,-55.491 -236.504,-97.73 -318.789,-63.788 7.879,97.068 298.379,123.148 342.715,129.558 6.895,12.43 12.754,40.93 14.102,50.7 1.339,9.77 -3.223,7.77 -6.231,7.86 -97.051,-21.93 -199.023,-49.08 -299.023,-39.26 -167.207,63.13 -105.567,189.09 -166.231,331.71 66.543,48.61 52.442,74.29 153.867,156.99 101.426,82.7 197.051,54.76 372.149,-131.2 10.176,-0.42 4.375,17.4 13.594,38.45 9.414,8.64 3.925,4.78 11.218,8.4 -144.812,120.75 -183.601,191.37 -174.597,266.64 74.492,0.09 135.097,-77.89 221.504,-253.95 36.719,10.48 39.649,12.16 53.419,21.32 -2.61,44.29 -85.872,99.44 -99.337,210.36 -23.203,190.95 134.087,210.37 273.387,287.64 101.72,-79.08 316.64,-100.21 275.89,-276.66 -16.72,-72.42 -47.32,-122.5 -99.43,-214.46 9.16,-22.25 35.41,-21.93 54.42,-18.65 36.01,92.2 92.98,225.76 205.24,241.43 33.14,-75.89 -123.73,-227.76 -165.25,-273.82 0.33,-2.62 1.66,-5.56 1.99,-8.51 26.33,-1.99 12.43,-28.04 30.24,-29.46 65.32,99.7 133.36,173 268.48,172.1 135.11,-0.9 128.96,-90.16 258.07,-191.41 -23.81,-93.17 -2.61,-231.68 -69.46,-297.43 -72.31,-71.12 -202.66,-48.34 -391.98,-2.52 -3.67,-11.94 8.87,-37.98 7.82,-56.46 79.57,-14.89 304.14,-10.98 346.98,-134.919 -128.92,-30.512 -250.33,18.488 -320.92,64.389 -7.74,5.04 -14.29,2.78 -14.47,0.28 0,-17.66 2.33,-43.419 8.56,-59.759 124.68,-39.75 264.28,-81.851 231.1,-229.992 -19.1,-85.269 -93.93,-144.348 -106.08,-250.57 -135.33,7.742 -241.05,-42.039 -305.47,-10.278 -92.48,45.59 -105.18,184.629 -116.66,260.848 -19.35,1.633 -38.69,2.949 -57.71,4.262 4.47,-27.031 25.27,-97.071 19.82,-162.731 -5.44,-65.64 -25.86,-103.16 -57.81,-127.769 -25.94,27.801 -49.32,69.961 -52.16,133.238 l 0,0 z M 986.973,1493.36 c 25.237,15.04 44.907,27.47 73.437,34.35 52.01,-98.1 230.41,-99.08 298.22,-2.2 4.92,-17.99 55.88,-21.69 70.64,-38.7 -88.25,-100.99 -345.31,-107.31 -442.297,6.55 l 0,0 z M 812.219,719.012 c 36.328,169.367 91.48,543.258 132.117,729.198 182.504,-104.32 314.254,-107.35 523.614,-6.87 19.7,-105.81 99.66,-531.102 134.76,-720.36 -200.54,89.25 -586.24,95.43 -790.491,-1.968 l 0,0 z m 441.631,777.718 c -10.88,84.57 -10.88,170.68 -13.69,251.47 17.38,8.5 15.33,8.5 32.06,11.12 8.35,-69.87 18.01,-185.49 29.5,-252.23 -15.81,-6.3 -31.11,-14.07 -47.87,-10.36 l 0,0 z m -71.55,-8.62 c -4.15,54.86 3.99,185.39 11.04,253.87 4.92,-0.32 15.27,0.81 20.51,0.16 4.59,-11.45 1.54,-113.35 12.03,-253.04 -19.62,-5.27 -24.26,-7.06 -43.58,-0.99 l 0,0 z m -72.09,27.25 c -4.39,45.66 11.49,180.73 23.32,242.32 17.51,-3.36 18.64,-4.72 36.06,-9.48 -10.49,-221.48 -6.52,-215.73 -12.95,-248.77 -17.93,-0.72 -34.25,5.91 -46.43,15.93 l 0,0 z m 26.92,276.02 c 23.31,42.88 98.04,40.24 127.26,4.99 -22.81,-31.2 -103.61,-30.51 -127.26,-4.99 l 0,0" /></g></g></svg>